<svg width="120" height="120" viewBox="0 0 120 120" fill="none" xmlns="http://www.w3.org/2000/svg">
<path fill-rule="evenodd" clip-rule="evenodd" d="M38.978 11.7259L37.7352 32.2333L84 21.5977V12H96V18.8391L104 17L106.688 28.695L96 31.1521V51.2043L101.577 51.0075L102 63L96 63.2118V75.0465L101 74L103.458 85.7455L96 87.3065V110H84V89.8182L33.6059 100.366L32.978 110.726L21 110L21.4294 102.914L17.4584 103.745L15 92L22.182 90.4968L23.681 65.7642L17 66L16.5767 54.0075L24.4102 53.731L24.7865 47.523L19.6885 48.695L17 37L25.5433 35.036L27 11L38.978 11.7259ZM36.9784 44.7203L36.458 53.3058L84 51.6278V33.9107L36.9784 44.7203ZM84 63.6353L35.7287 65.339L34.3585 87.9482L84 77.5581V63.6353Z" fill="black"/>
</svg>
